<svg xmlns="http://www.w3.org/2000/svg" width="100%" height="100%" viewBox="0 0 64 64" fill="none">
      <path d="M29 1.73205C30.8564 0.660254 33.1436 0.660254 35 1.73205L56.7128 14.2679C58.5692 15.3397 59.7128 17.3205 59.7128 19.4641V44.5359C59.7128 46.6795 58.5692 48.6603 56.7128 49.7321L35 62.2679C33.1436 63.3397 30.8564 63.3397 29 62.2679L7.28719 49.7321C5.43078 48.6603 4.28719 46.6795 4.28719 44.5359V19.4641C4.28719 17.3205 5.43078 15.3397 7.28719 14.2679L29 1.73205Z" fill="url(#paint0_diamond_26026_173944)"></path>
      <path d="M29 1.73205C30.8564 0.660254 33.1436 0.660254 35 1.73205L56.7128 14.2679C58.5692 15.3397 59.7128 17.3205 59.7128 19.4641V44.5359C59.7128 46.6795 58.5692 48.6603 56.7128 49.7321L35 62.2679C33.1436 63.3397 30.8564 63.3397 29 62.2679L7.28719 49.7321C5.43078 48.6603 4.28719 46.6795 4.28719 44.5359V19.4641C4.28719 17.3205 5.43078 15.3397 7.28719 14.2679L29 1.73205Z" fill="url(#paint1_linear_26026_173944)"></path>
      <defs>
        <radialGradient id="paint0_diamond_26026_173944" cx="0" cy="0" r="1" gradientUnits="userSpaceOnUse" gradientTransform="translate(-6.59974 23.1999) rotate(15.9097) scale(44.5051 21406.7)">
          <stop stop-color="#1185B5"></stop>
          <stop offset="0.29452" stop-color="#D7F7FF"></stop>
          <stop offset="0.526042" stop-color="#5EF6D8"></stop>
          <stop offset="0.838434" stop-color="#5EF6D8"></stop>
          <stop offset="0.867246" stop-color="#1990B9"></stop>
          <stop offset="1" stop-color="#3F9FC6"></stop>
        </radialGradient>
        <linearGradient id="paint1_linear_26026_173944" x1="23.5687" y1="22.7061" x2="44.1183" y2="53.4817" gradientUnits="userSpaceOnUse">
          <stop stop-color="#004E5F"></stop>
          <stop offset="1" stop-color="#727CD8" stop-opacity="0.81"></stop>
        </linearGradient>
      </defs>
    </svg>