<svg fill="none" xmlns="http://www.w3.org/2000/svg" viewBox="0 0 380 600">
    <path d="M244.5 500.5c3.5-8 4-9.5 6-19 1.614-7.664 1-16.5 1-16.5l-49.252 24.18-6.748 29.32c-.665 3.077-.748 11.5 2.5 17.5s12.782 16.357 25.5 17.5c26.932 2.42 25-20 12.5-35 1.156-2.285 5-10 8.5-18ZM246.5 448c7.75 15.5 17.479 21.542 23 19.5 19.5-7.212 13.279-40.03 7-56-5.847-14.87-17-33.5-27-44s-23.865-2.671-22.5 13.5c1.365 16.171 11.75 51.5 19.5 67Z"
          fill="rgba(246,248,249,0.8)" stroke="#A0B0B5" stroke-width="3" stroke-linecap="round" stroke-linejoin="round"
          stroke-dasharray="10 10"></path>
    <path d="M187.619 531.491c9.505 11.509 6.381 35.643-8.214 35.643-31.405 1.366-37.067-27.458-35.398-50.824L146.5 494s-12.802-18.66-13.5-30.5c-.698-11.84 6.351-62.291 10.007-73.258 3.655-10.967 11.822-19.392 24.858-24.318 13.036-4.927 58.936-11.753 58.936-11.753C239 372 253.139 405.072 255.582 420.54c2.214 14.021-.995 42.515-6.582 55.086-7.773 17.489-18.5 24.874-32.5 32.374-6.081 3.258-23.79 7.31-26 7.31.897-2.267 5-17.81 5-17.81-4 12.049-7.881 26-7.881 33.991Z"
          fill="rgba(246,248,249,0.8)" stroke="#A0B0B5" stroke-width="4" stroke-linecap="round" stroke-linejoin="round"
          stroke-dasharray="10 10"></path>
    <path d="M123.5 458.825c-2.111-13.676-1.155-29.944 2.532-48.145 2.676-13.212 12.156-27.975 18.812-34.599 26.587-26.458 28.603 7.202 22.282 25.913 0 0-3.33 22.805-4.626 34.006l-.002.013c-1.319 11.4-5.786 49.987-22.622 49.987-9.076 0-14.265-13.5-16.376-27.175Z"
          fill="rgba(246,248,249,0.8)" stroke="#A0B0B5" stroke-width="4" stroke-linecap="round"
          stroke-dasharray="10 10"></path>
    <path d="m178 376.5-22-1.967c-4.054 6.921-5.5 16.467-5.5 23.467s3.318 16.679 13.781 13.91c10.464-2.769 13.078-25.72 13.719-35.41Z"
          fill="rgba(246,248,249,0.8)"></path>
    <path d="M180.5 188c-40.511 2.868-70.5 19.878-84.0528 33.739-12.9472-2.239-18.9019 2.848-23.8355 5.184-7.9879 4.674-20.6818 19.506-19.5541 37.451 1.1277 17.945 8.777 22.83 15.1203 29.139 0 1.402 2.0828 8.262 2.7876 13.169 10.5722 39.955 41.3485 52.595 62.0225 59.605 16.681 6.309 60.553 16.606 104.533 1.465 50.979-17.55 59.976-43.507 64.205-64.536 1.409-7.009 0-22.716-2.879-31.654 0 0-.023-1.339 2.091-5.545 8.195-16.301 2.919-33.747.1-38.654-2.819-4.907-16.009-18.383-26.582-20.485-8.457-1.683-15.299-1.087-18.119-.387-9.632-6.075-35.326-21.359-75.837-18.491Z"
          fill="rgba(246,248,249,0.8)" stroke="#A0B0B5" stroke-width="4" stroke-linecap="round" stroke-linejoin="round"
          stroke-dasharray="10 10"></path>
    <path d="M81.2566 127.925c8.1918.546 17.7434 8.575 24.5664 17.973 5.177 9.602 5.2 16.039 2.214 24.995-2.985 8.956-12.8804 19.711-25.5686 19.711-12.7514 0-24.3109-8.008-28.1076-17.711-2.2391-5.722-3.4779-20.292.9995-29.995 5.1661-11.195 14.7009-15.719 25.8963-14.973Z"
          fill="rgba(246,248,249,0.8)"></path>
    <path d="M178.5 187c.738-39.85-23.398-79-28.612-79-3.689 0-25.615 24.615-44.065 37.898m0 0C99 136.5 89.4484 128.471 81.2566 127.925c-11.1954-.746-20.7302 3.778-25.8963 14.973-4.4774 9.703-3.2386 24.273-.9995 29.995 3.7967 9.703 15.3562 17.711 28.1076 17.711 12.6882 0 22.5836-10.755 25.5686-19.711 2.986-8.956 2.963-15.393-2.214-24.995Z"
          stroke="#A0B0B5" stroke-width="4" stroke-linejoin="round" stroke-dasharray="10 10"></path>
</svg>